<?xml version="1.0" encoding="UTF-8"?>
<svg id="Layer_2" data-name="Layer 2" xmlns="http://www.w3.org/2000/svg" xmlns:xlink="http://www.w3.org/1999/xlink" viewBox="0 0 386.55 65.05">
  <defs>
    <style>
      .cls-1 {
        fill: url(#linear-gradient);
      }

      .cls-2 {
        fill: #ff9433;
      }
    </style>
    <linearGradient id="linear-gradient" x1="-51.59" y1="217.01" x2="-63.09" y2="228.51" gradientTransform="translate(265.85 919.61) scale(4 -4)" gradientUnits="userSpaceOnUse">
      <stop offset="0" stop-color="#ff6429"/>
      <stop offset="1" stop-color="#ffc92b"/>
    </linearGradient>
  </defs>
  <g id="Layer_1-2" data-name="Layer 1">
    <g>
      <path class="cls-1" d="M4.91,15.35c.37-.6,.78-1.2,1.19-1.78,.31-.44,.91-.54,1.35-.24,.44,.31,.54,.91,.24,1.35,0,0,0,.01-.01,.02-.39,.54-.77,1.11-1.12,1.67-.28,.46-.88,.6-1.33,.32-.46-.28-.6-.88-.32-1.33,0,0,0,0,0-.01h0Zm60.15,17.17c.01,4.67-.99,9.29-2.94,13.53-.22,.49-.8,.7-1.28,.48s-.7-.8-.48-1.28c1.69-3.7,2.62-7.69,2.74-11.76h-15.85c-.21,3.24-1.49,6.31-3.63,8.75l11.22,11.22c1.24-1.32,2.37-2.75,3.36-4.28,.3-.45,.9-.57,1.34-.27,.44,.29,.56,.88,.28,1.33-9.79,15.07-29.94,19.34-45.01,9.55C1.65,51.24-3.53,34.51,2.5,20.02c.2-.5,.76-.74,1.26-.55s.74,.76,.55,1.26c0,.01-.01,.03-.02,.04-1.43,3.42-2.21,7.08-2.32,10.79h15.85c.21-3.24,1.49-6.31,3.63-8.75L9.53,10.9c-.38-.38-.38-.99,0-1.37,0,0,0,0,0,0C20.44-1.38,37.51-3.13,50.4,5.35l.86-.86c.78-.77,2.03-.77,2.81,0l.18,.18,3.04-3.04c1.7-1.7,4.45-1.7,6.15,0,1.7,1.7,1.7,4.45,0,6.15l-3.04,3.04,.18,.18c.78,.78,.78,2.03,0,2.81l-.86,.86c3.5,5.3,5.36,11.51,5.35,17.86h0Zm-17.81-.97h15.85c-.16-5.55-1.84-10.94-4.85-15.6-.76,.38-1.68,.23-2.27-.37l-.18-.18-10.23,10.23c.97,1.83,1.54,3.85,1.68,5.92h0Zm-13.75-13.75c2.07,.14,4.09,.71,5.92,1.68l10.23-10.23-.18-.18c-.6-.6-.75-1.52-.37-2.27-4.66-3.01-10.05-4.69-15.6-4.85v15.85Zm3.27,7.08c-.39,.39-.67,.89-.81,1.42l-.66,2.56c-.04,.17-.13,.32-.25,.44l-1.77,1.77c-.21,.19-.24,.51-.08,.74,.09,.1,.22,.16,.35,.17,.13,0,.26-.05,.36-.14l1.83-1.83c.12-.12,.28-.21,.44-.25l2.56-.65c.54-.14,1.03-.42,1.42-.81l14.26-14.26-3.4-3.4-14.26,14.26ZM55.62,6.04l3.4,3.4,3.04-3.04c.93-.95,.91-2.48-.05-3.4-.93-.91-2.42-.91-3.36,0l-3.04,3.04Zm-2.99-.18l-1.78,1.78s-.02,.05,0,.07l6.5,6.5s.05,.02,.07,0l1.78-1.78s.02-.05,0-.07l-5.64-5.64-.86-.86s-.02-.01-.03-.01c-.01,0-.02,0-.03,.01h0ZM11.6,10.22l11.22,11.22c2.44-2.14,5.51-3.42,8.75-3.63V1.96c-7.44,.21-14.55,3.15-19.97,8.26Zm21.9,37.02v15.85c7.44-.22,14.54-3.16,19.96-8.26l-11.22-11.22c-2.43,2.14-5.51,3.42-8.75,3.63Zm-1.94,0c-3.24-.21-6.31-1.49-8.75-3.63l-11.2,11.2c5.42,5.1,12.51,8.05,19.95,8.28v-15.85Zm-10.12-5c-2.14-2.43-3.42-5.51-3.63-8.75H1.97c.23,7.44,3.17,14.53,8.28,19.95l11.2-11.2Zm23.9-9.71c0-1.88-.42-3.74-1.22-5.45l-2.58,2.58c-.64,.64-1.44,1.09-2.31,1.32l-2.3,.59-1.64,1.64c-.46,.46-1.08,.71-1.72,.71h-.06c-.67-.02-1.3-.31-1.74-.81-.86-.99-.8-2.49,.15-3.4l1.58-1.58,.59-2.3c.22-.88,.68-1.67,1.32-2.31l2.58-2.58c-6.4-3.01-14.03-.25-17.04,6.15s-.25,14.03,6.15,17.04c6.4,3.01,14.03,.25,17.04-6.15,.8-1.7,1.22-3.56,1.21-5.45h0Z"/>
      <g>
        <path class="cls-2" d="M80.04,32.47c0-2.33,.4-4.62,1.21-6.86,.81-2.24,1.99-4.28,3.55-6.13,1.56-1.85,3.47-3.32,5.73-4.41,2.26-1.09,4.82-1.64,7.69-1.64,3.41,0,6.33,.78,8.77,2.34,2.44,1.56,4.25,3.56,5.43,6l-3.82,2.47c-.75-1.61-1.71-2.89-2.88-3.84-1.17-.95-2.42-1.62-3.76-2.02-1.34-.39-2.66-.59-3.95-.59-2.12,0-3.99,.43-5.62,1.29-1.63,.86-3,2.01-4.11,3.44-1.11,1.43-1.95,3.04-2.5,4.81-.56,1.77-.83,3.56-.83,5.35,0,1.97,.33,3.87,.99,5.7,.66,1.83,1.59,3.44,2.77,4.84,1.18,1.4,2.58,2.51,4.19,3.33,1.61,.83,3.37,1.24,5.27,1.24,1.33,0,2.69-.23,4.09-.7,1.4-.46,2.71-1.19,3.93-2.18,1.22-.99,2.19-2.27,2.9-3.84l4.03,2.21c-.79,1.9-2.01,3.51-3.66,4.84-1.65,1.33-3.49,2.33-5.51,3.01-2.03,.68-4.02,1.02-6,1.02-2.62,0-5.02-.56-7.21-1.69-2.19-1.13-4.08-2.63-5.67-4.52-1.6-1.88-2.83-4-3.71-6.34-.88-2.35-1.32-4.72-1.32-7.12Z"/>
        <path class="cls-2" d="M130.69,52.42c-2.12,0-4.03-.38-5.75-1.15-1.72-.76-3.21-1.81-4.46-3.15-1.26-1.33-2.22-2.87-2.9-4.62-.68-1.74-1.02-3.58-1.02-5.5s.34-3.81,1.02-5.55c.68-1.74,1.65-3.28,2.9-4.62,1.25-1.33,2.75-2.38,4.49-3.15,1.74-.76,3.67-1.15,5.78-1.15s3.98,.38,5.7,1.15c1.72,.77,3.22,1.81,4.49,3.15,1.27,1.33,2.25,2.87,2.93,4.62,.68,1.74,1.02,3.59,1.02,5.55s-.34,3.75-1.02,5.5c-.68,1.74-1.65,3.28-2.9,4.62-1.26,1.33-2.75,2.38-4.49,3.15-1.74,.76-3.67,1.15-5.78,1.15Zm-9.3-14.36c0,1.92,.42,3.65,1.26,5.22,.84,1.56,1.96,2.79,3.36,3.7,1.4,.91,2.96,1.36,4.68,1.36s3.29-.46,4.71-1.38c1.42-.92,2.55-2.17,3.39-3.75,.84-1.58,1.26-3.33,1.26-5.24s-.42-3.65-1.26-5.21-1.97-2.8-3.39-3.73c-1.42-.92-2.98-1.38-4.71-1.38s-3.28,.47-4.68,1.41c-1.4,.94-2.52,2.19-3.36,3.75-.84,1.56-1.26,3.32-1.26,5.27Z"/>
        <path class="cls-2" d="M150.75,12.63h4.73V44.77c0,1.55,.21,2.5,.65,2.86,.43,.36,.95,.54,1.56,.54,.75,0,1.47-.08,2.15-.24,.68-.16,1.25-.33,1.72-.51l.75,3.87c-.79,.32-1.72,.59-2.8,.81-1.08,.22-2.03,.32-2.85,.32-1.83,0-3.27-.52-4.33-1.57-1.06-1.04-1.59-2.5-1.59-4.37V12.63Z"/>
        <path class="cls-2" d="M178.28,52.42c-2.12,0-4.03-.38-5.75-1.15-1.72-.76-3.21-1.81-4.46-3.15-1.26-1.33-2.22-2.87-2.9-4.62-.68-1.74-1.02-3.58-1.02-5.5s.34-3.81,1.02-5.55c.68-1.74,1.65-3.28,2.9-4.62,1.25-1.33,2.75-2.38,4.49-3.15,1.74-.76,3.67-1.15,5.78-1.15s3.98,.38,5.7,1.15c1.72,.77,3.22,1.81,4.49,3.15,1.27,1.33,2.25,2.87,2.93,4.62,.68,1.74,1.02,3.59,1.02,5.55s-.34,3.75-1.02,5.5c-.68,1.74-1.65,3.28-2.9,4.62-1.25,1.33-2.75,2.38-4.49,3.15-1.74,.76-3.67,1.15-5.78,1.15Zm-9.3-14.36c0,1.92,.42,3.65,1.26,5.22,.84,1.56,1.96,2.79,3.36,3.7,1.4,.91,2.96,1.36,4.68,1.36s3.29-.46,4.71-1.38c1.42-.92,2.54-2.17,3.39-3.75,.84-1.58,1.26-3.33,1.26-5.24s-.42-3.65-1.26-5.21c-.84-1.56-1.97-2.8-3.39-3.73-1.42-.92-2.98-1.38-4.71-1.38s-3.28,.47-4.68,1.41c-1.4,.94-2.52,2.19-3.36,3.75-.84,1.56-1.26,3.32-1.26,5.27Z"/>
        <path class="cls-2" d="M213.07,27.95c-2.37,.04-4.46,.64-6.26,1.8-1.81,1.17-3.09,2.77-3.84,4.81v17.32h-4.73V23.98h4.41v6.35c.97-1.94,2.25-3.5,3.84-4.71,1.59-1.2,3.27-1.87,5.03-2.02h.91c.25,0,.47,.02,.65,.05v4.3Z"/>
        <path class="cls-2" d="M249.21,13.7V51.88h-4.84v-17.37h-21.03v17.37h-4.84V13.7h4.84V30.21h21.03V13.7h4.84Z"/>
        <path class="cls-2" d="M257.33,40.71V23.98h4.73v15.81c0,2.85,.5,4.99,1.51,6.41,1,1.42,2.49,2.14,4.46,2.14,1.29,0,2.54-.28,3.74-.83,1.2-.55,2.29-1.34,3.25-2.37s1.72-2.26,2.26-3.68V23.98h4.73v22.54c0,.57,.12,.99,.35,1.25s.62,.42,1.16,.45v3.66c-.54,.07-.96,.12-1.26,.13-.3,.02-.6,.03-.89,.03-.9,0-1.67-.28-2.31-.83s-.99-1.24-1.02-2.06l-.11-3.26c-1.22,2.07-2.86,3.67-4.92,4.81s-4.31,1.71-6.75,1.71c-2.94,0-5.16-.99-6.67-2.97s-2.26-4.89-2.26-8.74Z"/>
        <path class="cls-2" d="M314.28,51.88h-4.73v-15.56c0-2.95-.46-5.11-1.37-6.48-.91-1.37-2.3-2.05-4.17-2.05-1.29,0-2.57,.32-3.84,.96s-2.4,1.5-3.39,2.58c-.99,1.08-1.69,2.33-2.12,3.75v16.81h-4.73V23.98h4.3v6.03c.75-1.32,1.72-2.45,2.9-3.42,1.18-.96,2.53-1.71,4.03-2.24,1.51-.53,3.08-.8,4.73-.8s2.97,.29,4.06,.88c1.09,.59,1.95,1.41,2.58,2.46,.63,1.05,1.08,2.29,1.34,3.71,.27,1.42,.4,2.97,.4,4.64v16.65Z"/>
        <path class="cls-2" d="M335.89,50.65c-.4,.18-.93,.41-1.61,.7-.68,.29-1.47,.54-2.37,.75-.9,.22-1.85,.32-2.85,.32-1.15,0-2.21-.21-3.17-.62-.97-.41-1.74-1.06-2.31-1.94-.57-.88-.86-1.98-.86-3.31V27.69h-3.82v-3.71h3.82V14.62h4.73v9.36h6.29v3.71h-6.29v17.42c.07,1,.41,1.75,1.02,2.23,.61,.48,1.33,.73,2.15,.73,.93,0,1.79-.16,2.58-.48,.79-.32,1.31-.56,1.56-.7l1.13,3.76Z"/>
        <path class="cls-2" d="M352.35,52.42c-2.12,0-4.04-.38-5.78-1.15-1.74-.76-3.25-1.81-4.52-3.15-1.27-1.33-2.26-2.87-2.96-4.62-.7-1.74-1.05-3.59-1.05-5.55,0-2.63,.61-5.03,1.83-7.21,1.22-2.17,2.91-3.91,5.08-5.23s4.65-1.98,7.45-1.98,5.3,.67,7.39,2c2.1,1.34,3.73,3.08,4.89,5.23,1.17,2.15,1.75,4.48,1.75,6.97,0,.36,0,.7-.03,1.04-.02,.34-.05,.6-.08,.77h-23.28c.14,1.81,.65,3.41,1.53,4.81,.88,1.4,2.02,2.5,3.41,3.3,1.4,.8,2.9,1.2,4.52,1.2,1.72,0,3.34-.43,4.87-1.29,1.52-.86,2.57-1.99,3.15-3.39l4.09,1.13c-.61,1.36-1.51,2.58-2.72,3.66-1.2,1.08-2.62,1.92-4.25,2.53-1.63,.61-3.4,.91-5.3,.91Zm-9.46-16.13h19.14c-.14-1.81-.66-3.4-1.56-4.78-.9-1.38-2.04-2.46-3.44-3.24s-2.94-1.17-4.62-1.17-3.17,.39-4.57,1.17-2.54,1.86-3.42,3.24c-.88,1.38-1.39,2.98-1.53,4.78Z"/>
        <path class="cls-2" d="M386.55,27.95c-2.37,.04-4.46,.64-6.26,1.8-1.81,1.17-3.09,2.77-3.84,4.81v17.32h-4.73V23.98h4.41v6.35c.97-1.94,2.25-3.5,3.84-4.71,1.59-1.2,3.27-1.87,5.03-2.02h.91c.25,0,.47,.02,.65,.05v4.3Z"/>
      </g>
    </g>
  </g>
</svg>